<?xml version="1.0" encoding="utf-8"?>
<!-- Generator: Adobe Illustrator 18.1.1, SVG Export Plug-In . SVG Version: 6.00 Build 0)  -->
<svg version="1.1" id="Layer_1" xmlns="http://www.w3.org/2000/svg" xmlns:xlink="http://www.w3.org/1999/xlink" x="0px" y="0px"
	 viewBox="0 0 150 100" enable-background="new 0 0 150 100" xml:space="preserve">
<g>
	<g>
		<path fill="#FFFFFF" d="M18.7,85.4V16.8h22.2c18.3,0,27.4,9.3,27.4,22.2v26.8c0,15.2-11.5,19.6-25.1,19.6H18.7z M57.6,38
			c0-8.9-6.6-12.4-15.5-12.4H29.4v51.7h11.9c7.2,0,16.2-0.9,16.2-10.5V38z"/>
	</g>
	<g>
		<path fill="#FFFFFF" d="M23.4,31.3v45.8h-8c-6.6,0-9.8-6.2-9.8-14.8V44.4c0-10.1,4.1-13.1,9-13.1H23.4z M12.8,63
			c0,6,2.4,6.6,5.6,6.6h1.2V38.4h-1c-2.6,0-5.8-1.1-5.8,5.3V63z"/>
	</g>
	<circle fill="#FFFFFF" cx="45.8" cy="48.8" r="1.9"/>
	<path fill="#FFFFFF" d="M31.1,45.6v29.8h15c0,0,9.3-0.8,9.6-7.9c0.3-7,0.1-22.3,0.1-22.3S49,42,44.5,45.2c-3.1,2.2-8.1,0.6-8.1,0.6
		S31.1,44.3,31.1,45.6z"/>
</g>
<g>
	<path fill="#FFFFFF" d="M71.8,36V16.5h5c2,0,3.6,0.9,4.4,2.5c0.6,1.2,0.6,2.3,0.6,2.4v9.7c0,1.9-0.9,3.4-2.6,4.3
		c-1.1,0.6-2.3,0.6-2.4,0.6H71.8z M74.6,33.5h2.2c1.4,0,2.4-1.2,2.4-2.4v-9.7c0-0.4-0.3-2.4-2.3-2.4h-2.3V33.5z"/>
	<path fill="#FFFFFF" d="M93.8,29.9V36H91v-6.1c0-1.1-1.1-2.4-2.3-2.4h-2.3V36h-2.8V16.5h5c0.1,0,5,0,5,5.5c0,2.1-0.8,3.4-1.7,4.2
		C93.2,27.1,93.8,28.4,93.8,29.9z M91,22c0-1.4-0.4-2.2-1.1-2.7C89.3,19,88.8,19,88.8,19h-2.3V25h2.3C89.4,25,91,24.4,91,22z"/>
	<path fill="#FFFFFF" d="M98.5,16.5V36h-2.8V16.5H98.5z"/>
	<path fill="#FFFFFF" d="M110.9,36h-3.4l-3.9-12.2V36h-2.8V16.5h3.3l3.9,12.2V16.5h2.8V36z"/>
	<path fill="#FFFFFF" d="M115.9,36h-2.8V16.5h2.8v8.6l5.1-8.6h3.2l-5.7,9.7c1.9,3.2,3.9,6.5,5.7,9.7h-3.1l-4.3-7.3
		c-0.3,0.5-0.7,1-1,1.5V36z"/>
</g>
<g>
	<path fill="#FFFFFF" d="M71.8,57.6V38.2h5c2,0,3.6,0.9,4.4,2.5c0.6,1.2,0.6,2.3,0.6,2.4v9.7c0,1.9-0.9,3.4-2.6,4.3
		c-1.1,0.6-2.3,0.6-2.4,0.6H71.8z M74.6,55.2h2.2c1.4,0,2.4-1.2,2.4-2.4V43c0-0.4-0.3-2.4-2.3-2.4h-2.3V55.2z"/>
	<path fill="#FFFFFF" d="M93.5,51.5v6.1h-2.8v-6.1c0-1.1-1.1-2.4-2.3-2.4h-2.3v8.5h-2.8V38.2h5c0.1,0,5,0,5,5.5
		c0,2.1-0.8,3.4-1.7,4.2C92.9,48.7,93.5,50,93.5,51.5z M90.8,43.6c0-1.4-0.4-2.2-1.1-2.7c-0.6-0.4-1.1-0.4-1.1-0.4h-2.3v6.1h2.3
		C89.2,46.7,90.8,46,90.8,43.6z"/>
	<path fill="#FFFFFF" d="M102.6,51.5h-4.1l-1.3,6.1h-2.8l4.2-19.5h3.9l4.2,19.5h-2.8L102.6,51.5z M102.1,49.1l-1.5-7
		c-0.5,2.4-1,4.6-1.5,7H102.1z"/>
	<path fill="#FFFFFF" d="M117.7,57.6h-3.4l-3.9-12.2v12.2h-2.8V38.2h3.3l3.9,12.2V38.2h2.8V57.6z"/>
	<path fill="#FFFFFF" d="M122,57.6h-2.8V38.2h2.8v8.6l5.1-8.6h3.2l-5.7,9.7c1.9,3.2,3.9,6.5,5.7,9.7h-3.1l-4.3-7.3
		c-0.3,0.5-0.7,1-1,1.5V57.6z"/>
</g>
<g>
	<path fill="#FFFFFF" d="M72,85.4V60.9h6.3c2.6,0,4.5,1.1,5.6,3.1c0.7,1.5,0.8,2.8,0.8,3v12.2c0,2.4-1.2,4.3-3.3,5.4
		c-1.4,0.7-2.9,0.7-3.1,0.7H72z M75.5,82.3h2.7c1.7,0,3-1.5,3-3.1V67c0-0.6-0.3-3-2.8-3h-2.9V82.3z"/>
	<path fill="#FFFFFF" d="M99.4,77.7v7.7h-3.5v-7.7c0-1.4-1.3-3-2.8-3h-2.9v10.7h-3.5V60.9H93c0.1,0,6.3,0,6.3,6.9
		c0,2.6-1,4.2-2.1,5.3C98.6,74.2,99.4,75.8,99.4,77.7z M95.9,67.8c0-1.7-0.5-2.8-1.4-3.4C93.7,64,93,64,93,64h-2.9v7.6H93
		C93.9,71.6,95.9,70.7,95.9,67.8z"/>
	<path fill="#FFFFFF" d="M101.5,82.2c-0.7-1.5-0.8-2.8-0.8-3V60.9h3.5v18.4c0,0.5,0.4,3.1,2.9,3.1s2.8-2.5,2.8-3.1V60.9h3.5v18.4
		c0,0.1,0,1.5-0.8,3c-1,2-3,3.1-5.6,3.1C104.5,85.4,102.5,84.2,101.5,82.2z"/>
	<path fill="#FFFFFF" d="M128.1,85.4h-4.2l-5-15.4v15.4h-3.5V60.9h4.2l5,15.4V60.9h3.5V85.4z"/>
	<path fill="#FFFFFF" d="M133.6,85.4h-3.5V60.9h3.5v10.9l6.4-10.9h4.1l-7.2,12.2c2.3,4,4.9,8.2,7.2,12.2h-3.9l-5.4-9.1
		c-0.4,0.6-0.9,1.3-1.2,1.9V85.4z"/>
</g>
</svg>
